<svg width="163" height="37" viewBox="0 0 163 37" fill="none" xmlns="http://www.w3.org/2000/svg">
<path d="M44.678 17.8861C47.1471 17.8861 48.8045 19.0009 49.8192 20.3858V0.658412C49.8192 0.286834 49.3795 0.0503755 49.0751 0.286834L24.6881 18.0888H25.3308C27.8676 18.0888 29.1529 19.7102 29.1529 21.4668C29.1529 22.8518 28.4426 23.8652 27.4617 24.3043C27.2925 24.3719 27.2925 24.6083 27.4617 24.6759C28.5779 25.1488 29.3896 26.3311 29.3896 27.7498C29.3896 29.7766 28.0705 31.3643 25.5337 31.3643H18.5998C18.4645 31.3643 18.3292 31.2629 18.3292 31.094V22.7166L0.165887 35.9921C-0.138527 36.2624 -0.00323274 36.7353 0.402652 36.7353H49.3795C49.6162 36.7353 49.7854 36.5664 49.7854 36.3299V29.6077C48.4662 30.8238 46.7412 31.6007 44.6441 31.6007C40.7206 31.6007 37.5411 28.8984 37.5411 24.7434C37.575 20.5547 40.7882 17.8861 44.678 17.8861ZM34.9705 31.1278C34.9705 31.2629 34.8691 31.3643 34.7338 31.3643H32.3999C32.2646 31.3643 32.1632 31.2629 32.1632 31.1278V18.3253C32.1632 18.1901 32.2646 18.0888 32.3999 18.0888H34.7338C34.8691 18.0888 34.9705 18.1901 34.9705 18.3253V31.1278Z" fill="#34313F"/>
<path d="M21.441 23.3584H24.7219C25.6689 23.3584 26.2778 22.8179 26.2778 21.9734C26.2778 21.1627 25.6689 20.5884 24.7219 20.5884H21.3057C21.238 20.5884 21.1704 20.656 21.1704 20.7236V23.1219C21.1704 23.257 21.3057 23.3584 21.441 23.3584Z" fill="#34313F"/>
<path d="M21.441 28.8983H24.8572C25.9057 28.8983 26.5483 28.3241 26.5483 27.3782C26.5483 26.5338 25.9395 25.8582 24.8572 25.8582H21.441C21.3057 25.8582 21.1704 25.9595 21.1704 26.1284V28.6281C21.1704 28.7632 21.3057 28.8983 21.441 28.8983Z" fill="#34313F"/>
<path d="M47.6882 21.9058C47.0456 21.0613 45.9632 20.3857 44.6779 20.3857C42.2426 20.3857 40.4838 22.2436 40.4838 24.7433C40.4838 27.2431 42.2426 29.1009 44.6779 29.1009C45.7941 29.1009 46.8426 28.628 47.4176 28.1551C47.4515 28.1213 47.4853 28.0538 47.4853 27.9862V26.7026C47.4853 26.6012 47.3838 26.4999 47.2823 26.4999H44.272C44.1029 26.4999 44.0014 26.3648 44.0014 26.2297V24.338C44.0014 24.1691 44.1367 24.0677 44.272 24.0677H49.8529V21.0613L48.0603 22.041C47.925 22.0747 47.7559 22.0072 47.6882 21.9058Z" fill="#34313F"/>
<path d="M51.9162 24.7434C51.9162 20.656 54.8589 17.886 58.6471 17.886C61.1163 17.886 62.706 19.1359 63.653 20.656C63.7207 20.7573 63.6869 20.9262 63.5516 20.96L62.0295 21.7707C61.928 21.8383 61.7927 21.8045 61.7589 21.7032C61.1163 20.6898 59.9324 19.9466 58.6471 19.9466C56.1103 19.9466 54.2162 21.9396 54.2162 24.7434C54.2162 27.5133 56.1103 29.5401 58.6471 29.5401C59.9324 29.5401 61.1163 28.7969 61.7589 27.7835C61.8266 27.6822 61.928 27.6484 62.0295 27.716L63.5516 28.4929C63.6869 28.5605 63.7207 28.6956 63.653 28.8307C62.6722 30.3508 61.0824 31.6344 58.6471 31.6344C54.8589 31.6007 51.9162 28.7969 51.9162 24.7434Z" fill="#34313F"/>
<path d="M64.9721 24.7433C64.9721 21.4329 66.8663 18.8656 69.7074 18.1225C74.5442 16.8389 78.9752 21.3653 77.9266 26.3985C77.284 29.5063 74.8148 31.6344 71.5339 31.6344C67.678 31.6006 64.9721 28.6956 64.9721 24.7433ZM75.7619 24.7433C75.7619 22.0072 74.0707 19.9466 71.5001 19.9466C68.8957 19.9466 67.2383 22.0072 67.2383 24.7433C67.2383 27.4795 68.8957 29.5401 71.5001 29.5401C74.1045 29.5401 75.7619 27.4457 75.7619 24.7433Z" fill="#34313F"/>
<path d="M91.862 31.1954V21.0952L87.837 31.263C87.837 31.2968 87.7693 31.3305 87.7355 31.3305H86.8899C86.8561 31.3305 86.7884 31.2968 86.7884 31.263L82.7296 21.0952V31.1954C82.7296 31.2967 82.6619 31.3643 82.5604 31.3643H80.531C80.4295 31.3643 80.3619 31.2967 80.3619 31.1954V18.224C80.3619 18.1226 80.4295 18.0551 80.531 18.0551H83.4399C83.5752 18.0551 83.6766 18.1226 83.7443 18.2577L87.2958 27.3783L90.8134 18.2577C90.8473 18.1226 90.9826 18.0551 91.1179 18.0551H94.0267C94.1282 18.0551 94.1958 18.1226 94.1958 18.224V31.1954C94.1958 31.2967 94.1282 31.3643 94.0267 31.3643H91.9973C91.9635 31.3643 91.862 31.2967 91.862 31.1954Z" fill="#34313F"/>
<path d="M114.862 31.1278V18.3252C114.862 18.1901 114.964 18.0887 115.099 18.0887H123.724C123.859 18.0887 123.961 18.1901 123.961 18.3252V19.8791C123.961 20.0142 123.859 20.1155 123.724 20.1155H117.433C117.298 20.1155 117.196 20.2169 117.196 20.352V23.2908C117.196 23.426 117.298 23.5273 117.433 23.5273H123.589C123.724 23.5273 123.826 23.6286 123.826 23.7638V25.3176C123.826 25.4527 123.724 25.5541 123.589 25.5541H117.433C117.298 25.5541 117.196 25.6554 117.196 25.7905V28.9996C117.196 29.1347 117.298 29.2361 117.433 29.2361H123.724C123.859 29.2361 123.961 29.3374 123.961 29.4725V31.0264C123.961 31.1615 123.859 31.2629 123.724 31.2629H115.099C114.964 31.3642 114.862 31.2629 114.862 31.1278Z" fill="#34313F"/>
<path d="M134.784 31.2291L131.977 26.4999C131.943 26.4324 131.842 26.3986 131.774 26.3986H129.812C129.677 26.3986 129.576 26.4999 129.576 26.635V31.1278C129.576 31.2629 129.474 31.3642 129.339 31.3642H127.512C127.377 31.3642 127.276 31.2629 127.276 31.1278V18.3252C127.276 18.1901 127.377 18.0887 127.512 18.0887H133.127C135.765 18.0887 137.49 19.7777 137.49 22.2437C137.49 24.4393 136.137 25.6892 134.649 26.0608C134.48 26.0946 134.412 26.2635 134.48 26.4324C135.021 27.3106 136.712 30.013 137.355 30.9926C137.456 31.1615 137.355 31.3642 137.152 31.3642H135.021C134.92 31.3642 134.852 31.3304 134.784 31.2291ZM135.089 22.2099C135.089 20.9262 134.142 20.1155 132.823 20.1155H129.846C129.711 20.1155 129.609 20.2169 129.609 20.352V24.1016C129.609 24.2367 129.711 24.338 129.846 24.338H132.823C134.142 24.338 135.089 23.5273 135.089 22.2099Z" fill="#34313F"/>
<path d="M153.252 31.1278V18.3252C153.252 18.1901 153.354 18.0887 153.489 18.0887H162.148C162.283 18.0887 162.385 18.1901 162.385 18.3252V19.9129C162.385 20.048 162.283 20.1493 162.148 20.1493H155.823C155.688 20.1493 155.586 20.2507 155.586 20.3858V23.3584C155.586 23.4935 155.688 23.5949 155.823 23.5949H161.979C162.114 23.5949 162.216 23.6962 162.216 23.8313V25.419C162.216 25.5541 162.114 25.6554 161.979 25.6554H155.823C155.688 25.6554 155.586 25.7568 155.586 25.8919V29.1347C155.586 29.2699 155.688 29.3712 155.823 29.3712H162.148C162.283 29.3712 162.385 29.4725 162.385 29.6077V31.1953C162.385 31.3304 162.283 31.4318 162.148 31.4318H153.489C153.354 31.3642 153.252 31.2629 153.252 31.1278Z" fill="#34313F"/>
<path d="M139.181 24.6758C139.181 20.5884 142.124 17.8185 145.912 17.8185C148.382 17.8185 149.971 19.0683 150.918 20.5884C150.986 20.6898 150.952 20.8587 150.817 20.8924L149.295 21.7032C149.193 21.7707 149.058 21.7369 149.024 21.6356C148.382 20.6222 147.198 19.879 145.912 19.879C143.376 19.879 141.481 21.8721 141.481 24.6758C141.481 27.4457 143.376 29.4725 145.912 29.4725C147.198 29.4725 148.382 28.7294 149.024 27.716C149.092 27.6146 149.193 27.5808 149.295 27.6484L150.817 28.4253C150.952 28.4929 150.986 28.628 150.918 28.7631C149.937 30.2832 148.348 31.5669 145.912 31.5669C142.124 31.5331 139.181 28.7631 139.181 24.6758Z" fill="#34313F"/>
<path d="M109.112 31.1954V21.0952L105.087 31.263C105.087 31.2968 105.02 31.3305 104.986 31.3305H104.14C104.106 31.3305 104.039 31.2968 104.039 31.263L99.9798 21.0952V31.1954C99.9798 31.2967 99.9122 31.3643 99.8107 31.3643H97.7813C97.6798 31.3643 97.6122 31.2967 97.6122 31.1954V18.224C97.6122 18.1226 97.6798 18.0551 97.7813 18.0551H100.69C100.825 18.0551 100.927 18.1226 100.995 18.2577L104.546 27.3783L108.064 18.2577C108.098 18.1226 108.233 18.0551 108.368 18.0551H111.277C111.378 18.0551 111.446 18.1226 111.446 18.224V31.1954C111.446 31.2967 111.378 31.3643 111.277 31.3643H109.248C109.18 31.3643 109.112 31.2967 109.112 31.1954Z" fill="#34313F"/>
</svg>
