<svg width="158" height="46" viewBox="0 0 158 46" fill="none" xmlns="http://www.w3.org/2000/svg">
<path d="M54.5581 25.0841C53.2128 24.338 52.5047 23.7341 52.5047 22.8814C52.5047 21.7801 53.4606 21.1051 54.983 21.1051C56.7532 21.1051 58.311 21.8512 58.311 21.8512L59.5501 18.0498C59.5501 18.0498 58.4172 17.1617 55.0538 17.1617C50.3804 17.1617 47.1232 19.8617 47.1232 23.6275C47.1232 25.7591 48.6456 27.3933 50.6636 28.5657C52.2922 29.4893 52.8587 30.1643 52.8587 31.1236C52.8587 32.1538 52.0444 32.9709 50.522 32.9709C48.2561 32.9709 46.1319 31.7986 46.1319 31.7986L44.8219 35.5999C44.8219 35.5999 46.8046 36.9144 50.0972 36.9144C54.9122 36.9144 58.3464 34.5341 58.3464 30.2709C58.4172 27.9262 56.647 26.292 54.5581 25.0841Z" fill="black"/>
<path d="M73.7473 17.0906C71.3752 17.0906 69.5342 18.2274 68.0826 19.9327L68.0118 19.8972L70.0653 9.09717H64.6838L59.4794 36.5591H64.8254L66.5956 27.1801C67.3037 23.6275 69.1094 21.4604 70.8088 21.4604C72.0125 21.4604 72.4728 22.2775 72.4728 23.4498C72.4728 24.1959 72.402 25.084 72.2249 25.8301L70.2069 36.5946H75.553L77.6418 25.5104C77.8896 24.338 78.0313 22.9525 78.0313 21.9932C78.1021 18.9025 76.5443 17.0906 73.7473 17.0906Z" fill="black"/>
<path d="M90.2104 17.0906C83.7668 17.0906 79.4828 22.917 79.4828 29.4183C79.4828 33.5749 82.0319 36.9499 86.8469 36.9499C93.1843 36.9499 97.4328 31.2657 97.4328 24.6222C97.4682 20.7499 95.2378 17.0906 90.2104 17.0906ZM87.5904 32.7933C85.7494 32.7933 85.0059 31.2301 85.0059 29.2762C85.0059 26.1854 86.5991 21.1762 89.5023 21.1762C91.4141 21.1762 92.016 22.8104 92.016 24.4091C92.016 27.7486 90.4228 32.7933 87.5904 32.7933Z" fill="black"/>
<path d="M111.17 17.0906C107.558 17.0906 105.505 20.288 105.505 20.288H105.434L105.753 17.4104H101.009C100.761 19.3643 100.336 22.313 99.9111 24.5512L96.1937 44.1617H101.54L103.027 36.2038H103.133C103.133 36.2038 104.23 36.9144 106.284 36.9144C112.586 36.9144 116.693 30.4486 116.693 23.9117C116.693 20.3235 115.1 17.0906 111.17 17.0906ZM106.072 32.8999C104.691 32.8999 103.876 32.1183 103.876 32.1183L104.762 27.1091C105.399 23.7696 107.134 21.5314 108.975 21.5314C110.603 21.5314 111.099 23.0591 111.099 24.4801C111.099 27.9262 109.045 32.8999 106.072 32.8999Z" fill="black"/>
<path d="M124.34 9.38141C122.641 9.38141 121.26 10.7314 121.26 12.5077C121.26 14.1064 122.251 15.2077 123.774 15.2077H123.845C125.509 15.2077 126.96 14.0709 126.996 12.0814C127.031 10.4827 125.969 9.38141 124.34 9.38141Z" fill="black"/>
<path d="M116.834 36.5591H122.216L125.863 17.517H120.446L116.834 36.5591Z" fill="black"/>
<path d="M139.458 17.4814H135.74L135.917 16.5933C136.236 14.7459 137.298 13.1117 139.104 13.1117C140.06 13.1117 140.803 13.3959 140.803 13.3959L141.865 9.20379C141.865 9.20379 140.945 8.74194 138.962 8.74194C137.05 8.74194 135.174 9.27484 133.722 10.5183C131.881 12.0814 131.032 14.3196 130.607 16.5933L130.465 17.4814H127.987L127.208 21.5314H129.686L126.854 36.5591H132.2L135.032 21.5314H138.714L139.458 17.4814Z" fill="black"/>
<path d="M152.345 17.517C152.345 17.517 148.982 25.9722 147.495 30.5907H147.424C147.318 29.0986 146.114 17.517 146.114 17.517H140.485L143.706 34.996C143.777 35.3867 143.742 35.6354 143.6 35.8841C142.963 37.092 141.936 38.2644 140.697 39.117C139.706 39.8631 138.573 40.3249 137.688 40.6446L139.175 45.192C140.272 44.9433 142.503 44.0552 144.414 42.2789C146.857 39.9696 149.123 36.4525 151.425 31.6209L157.974 17.517H152.345Z" fill="black"/>
<path d="M26.3763 5.15375C26.3763 5.15375 25.8806 5.29585 25.0663 5.54454C24.9247 5.08269 24.7123 4.5498 24.429 3.98137C23.5085 2.20505 22.1277 1.24584 20.4991 1.24584C20.3929 1.24584 20.2867 1.24584 20.1451 1.28137C20.1097 1.21032 20.0389 1.17479 20.0035 1.10374C19.2954 0.322156 18.3749 -0.0331075 17.2773 0.00241893C15.1531 0.0734717 13.0288 1.60111 11.3294 4.33664C10.1257 6.25506 9.20514 8.67086 8.95731 10.5538C6.51441 11.2998 4.815 11.8327 4.77959 11.8682C3.54044 12.259 3.50503 12.2945 3.36342 13.4669C3.2572 14.3551 0 39.3657 0 39.3657L26.7657 44.0196V5.11822C26.5533 5.11822 26.4471 5.15375 26.3763 5.15375ZM20.1805 7.07217C18.7643 7.49849 17.2065 7.99586 15.6841 8.4577C16.109 6.78796 16.9587 5.11822 17.95 4.0169C18.3395 3.62611 18.8705 3.16427 19.4724 2.88006C20.0743 4.15901 20.2159 5.8998 20.1805 7.07217ZM17.2773 1.459C17.773 1.459 18.1979 1.56558 18.5519 1.77874C17.9854 2.06295 17.419 2.52479 16.8879 3.05769C15.5425 4.51427 14.5158 6.78796 14.0909 8.95507C12.8164 9.34586 11.5418 9.73665 10.3735 10.0919C11.1524 6.68138 14.0201 1.53005 17.2773 1.459ZM13.1704 20.9985C13.3121 23.2722 19.2954 23.7696 19.6494 29.1341C19.8973 33.3617 17.419 36.2393 13.8431 36.4525C9.52378 36.7367 7.15169 34.1788 7.15169 34.1788L8.0722 30.2709C8.0722 30.2709 10.4443 32.0827 12.3561 31.9406C13.5953 31.8696 14.0555 30.8393 14.0201 30.1288C13.8431 27.1446 8.95731 27.3222 8.63867 22.4196C8.35544 18.2985 11.0462 14.1419 16.9941 13.7511C19.2954 13.609 20.4637 14.1774 20.4637 14.1774L19.1184 19.2932C19.1184 19.2932 17.596 18.5827 15.7904 18.7248C13.1704 18.9025 13.135 20.5722 13.1704 20.9985ZM21.5967 6.64585C21.5967 5.58006 21.4551 4.05243 20.9594 2.77348C22.588 3.09321 23.3669 4.90506 23.7209 6.00638C23.0837 6.18401 22.3756 6.39717 21.5967 6.64585Z" fill="black"/>
<path d="M27.58 43.9486L38.697 41.1775C38.697 41.1775 33.9174 8.74193 33.882 8.52877C33.8466 8.31561 33.6696 8.17351 33.4926 8.17351C33.3155 8.17351 30.2 8.10246 30.2 8.10246C30.2 8.10246 28.2881 6.25508 27.58 5.54456V43.9486Z" fill="black"/>
</svg>
