<svg width="228" height="33" viewBox="0 0 228 33" fill="none" xmlns="http://www.w3.org/2000/svg">
<g clip-path="url(#clip0_1_293)">
<path d="M8.43017 17.5507L21.2782 4.77581C22.1462 3.91645 23.3207 3.43404 24.5449 3.43404C25.7692 3.43404 26.9437 3.91645 27.8116 4.77581L28.8101 5.76967L30.8116 3.77742L29.8132 2.77902C28.4131 1.38841 26.516 0.607422 24.5381 0.607422C22.5602 0.607422 20.6631 1.38841 19.263 2.77902L6.42409 15.5585L8.43017 17.5507Z" fill="black"/>
<path d="M25.582 8.98271L23.5805 6.99046L10.7279 19.7835C9.8597 20.6471 8.68241 21.132 7.45502 21.1316C6.22762 21.1312 5.05067 20.6455 4.18307 19.7813C3.31547 18.9171 2.8283 17.7453 2.82873 16.5235C2.82916 15.3018 3.31715 14.1303 4.18535 13.2667L15.2735 2.22993L13.272 0.237671L2.18383 11.2745C1.47795 11.9608 0.915905 12.7797 0.530238 13.6838C0.14457 14.5878 -0.0570495 15.5591 -0.062943 16.5412C-0.0688364 17.5234 0.121114 18.497 0.495905 19.4055C0.870695 20.3141 1.42288 21.1397 2.12047 21.8343C2.81805 22.529 3.64718 23.0789 4.55982 23.4524C5.47247 23.8258 6.45048 24.0153 7.43722 24.0099C8.42395 24.0045 9.3998 23.8042 10.3082 23.4207C11.2167 23.0372 12.0396 22.4781 12.7294 21.7758L25.582 8.98271ZM38.3753 11.2745C36.9747 9.88498 35.0778 9.10476 33.1003 9.10476C31.1227 9.10476 29.2258 9.88498 27.8252 11.2745L14.9726 24.0676L16.9741 26.0598L29.8267 13.2667C30.4741 12.6236 31.2985 12.1858 32.1958 12.0088C33.093 11.8317 34.0229 11.9233 34.8679 12.272C35.7128 12.6206 36.4351 13.2107 36.9433 13.9677C37.4515 14.7247 37.723 15.6147 37.7234 16.5251C37.7257 17.1317 37.6059 17.7325 37.3709 18.2922C37.136 18.8519 36.7908 19.359 36.3556 19.7835L25.2811 30.8204L27.2872 32.8126L38.3753 21.7758C39.7724 20.3822 40.557 18.4939 40.557 16.5251C40.557 14.5564 39.7724 12.6681 38.3753 11.2745Z" fill="black"/>
<path d="M32.1292 15.4995L19.2766 28.2881C18.4074 29.1505 17.2302 29.6347 16.003 29.6347C14.7758 29.6347 13.5986 29.1505 12.7295 28.2881L11.731 27.2897L9.72945 29.2819L10.7279 30.2803C12.1286 31.6698 14.0255 32.45 16.003 32.45C17.9805 32.45 19.8774 31.6698 21.2781 30.2803L34.1307 17.4827L32.1292 15.4995Z" fill="black"/>
<path d="M52.2949 19.9651C52.4264 20.7239 52.8418 21.405 53.4575 21.8711C54.1638 22.3575 55.0116 22.5984 55.8694 22.5564C56.6859 22.6082 57.4942 22.3684 58.149 21.8802C58.41 21.6641 58.618 21.3915 58.7571 21.0832C58.8961 20.7749 58.9626 20.439 58.9515 20.1013C58.9606 19.7853 58.8868 19.4724 58.7372 19.1936C58.5873 18.9406 58.3815 18.7248 58.1353 18.5628C57.8417 18.3688 57.5226 18.2161 57.187 18.109L55.9195 17.7278L54.7113 17.401C54.0415 17.2244 53.3898 16.9859 52.7645 16.6886C52.2277 16.4359 51.7315 16.1056 51.2919 15.7083C50.8998 15.3459 50.5891 14.9052 50.38 14.4149C50.157 13.8756 50.0484 13.2962 50.0609 12.7131C50.0544 12.0671 50.1947 11.4279 50.4712 10.8434C50.7378 10.2745 51.1325 9.77451 51.6247 9.38211C52.1661 8.95076 52.785 8.62581 53.4484 8.42456C54.2236 8.18005 55.0335 8.06205 55.8466 8.07512C57.5214 8.07512 58.8481 8.46843 59.8268 9.25504C60.3119 9.64385 60.7142 10.1251 61.0101 10.6706C61.306 11.216 61.4897 11.8148 61.5502 12.4318L58.8147 12.6541C58.6793 12.0294 58.3275 11.4719 57.8208 11.0794C57.2065 10.6706 56.4748 10.473 55.7372 10.5167C55.0412 10.4759 54.3527 10.6781 53.7904 11.0885C53.5658 11.2627 53.3853 11.4868 53.2634 11.7429C53.1415 11.9991 53.0815 12.28 53.0882 12.5634C53.077 12.8654 53.1479 13.1649 53.2934 13.4302C53.4401 13.675 53.6413 13.8831 53.8815 14.0383C54.1744 14.2279 54.4899 14.3803 54.8208 14.4921C55.1901 14.6282 55.6095 14.7734 56.0746 14.9232L57.2326 15.2817C57.953 15.5086 58.605 15.7446 59.1885 15.9897C59.7252 16.2169 60.2247 16.5228 60.6703 16.8973C61.0719 17.2357 61.3928 17.6589 61.6095 18.1362C61.8441 18.6994 61.956 19.3058 61.9378 19.9152C61.9454 20.6276 61.7894 21.3322 61.4819 21.9755C61.1852 22.5934 60.7519 23.1364 60.2144 23.5639C59.6368 24.0185 58.9799 24.3631 58.2767 24.5804C57.4755 24.8285 56.64 24.9495 55.801 24.9389C54.3172 24.994 52.8534 24.5845 51.6156 23.7681C51.0378 23.3519 50.5539 22.8199 50.195 22.2063C49.8362 21.5928 49.6103 20.9113 49.532 20.2056L52.2949 19.9651ZM73.4727 8.1205C74.6196 8.10573 75.7582 8.31543 76.8238 8.73769C77.7971 9.12569 78.6754 9.71683 79.3998 10.4713C80.1266 11.2405 80.6896 12.1482 81.0548 13.1397C81.4558 14.2296 81.6551 15.3827 81.643 16.5433C81.6593 17.7252 81.4473 18.8992 81.0183 20.0014C80.6185 21.0032 80.0146 21.9117 79.2448 22.6699L81.415 25.1976V25.9827H78.6794L77.1612 24.1357C76.6112 24.3976 76.0351 24.6015 75.4423 24.7438C74.8025 24.88 74.1498 24.9469 73.4955 24.9435C72.3356 24.9504 71.1857 24.7283 70.1126 24.29C69.1448 23.8995 68.2726 23.3068 67.5548 22.5519C66.8368 21.7861 66.283 20.8828 65.9271 19.897C65.534 18.8179 65.3379 17.6775 65.3481 16.5297C65.3367 15.3744 65.5328 14.2264 65.9271 13.1397C66.2852 12.1506 66.8439 11.2454 67.5685 10.4803C68.291 9.72571 69.1658 9.13182 70.1354 8.73769C71.1947 8.31042 72.3299 8.10049 73.4727 8.1205ZM73.4499 10.553C72.6972 10.5414 71.9513 10.6964 71.266 11.0068C70.6365 11.2963 70.0803 11.7227 69.6384 12.2548C69.1789 12.8126 68.8321 13.4537 68.6171 14.1426C68.3793 14.9097 68.2624 15.7088 68.2706 16.5116C68.2626 17.3212 68.3842 18.127 68.6308 18.8986C68.8516 19.5939 69.2011 20.2418 69.6612 20.8092C70.1023 21.3477 70.6583 21.7818 71.2888 22.0799C71.9733 22.3925 72.7198 22.5476 73.4727 22.5337C74.2251 22.541 74.9701 22.3862 75.6566 22.0799C76.285 21.7966 76.8412 21.3763 77.2843 20.8501C77.7497 20.2913 78.0999 19.6467 78.3147 18.9531C78.5641 18.1633 78.6872 17.3394 78.6794 16.5116C78.6864 15.6957 78.5633 14.8838 78.3147 14.1063C78.0967 13.4168 77.7469 12.7757 77.2843 12.2185C76.8366 11.6922 76.2777 11.2707 75.6475 10.9841C74.9554 10.6824 74.2053 10.5352 73.4499 10.553ZM92.3892 22.6472C92.896 22.6782 93.4036 22.5984 93.8762 22.4134C94.3488 22.2284 94.7749 21.9426 95.1247 21.5762C95.7721 20.8652 96.0959 19.773 96.0959 18.2996V8.43363H98.9363V18.3904C98.9587 19.4104 98.8045 20.4267 98.4803 21.3946C98.2184 22.1699 97.7764 22.8727 97.1901 23.4459C96.6084 23.994 95.9034 24.3955 95.1338 24.6167C93.3437 25.1095 91.4528 25.1095 89.6627 24.6167C88.896 24.3953 88.1939 23.9938 87.6156 23.4459C87.0308 22.8716 86.5889 22.1691 86.3253 21.3946C86.0014 20.4266 85.8471 19.4104 85.8694 18.3904V8.43363H88.7189V18.2996C88.7189 19.77 89.0442 20.8622 89.6946 21.5762C90.0395 21.9377 90.4589 22.2206 90.924 22.4055C91.3892 22.5904 91.889 22.6728 92.3892 22.6472ZM101.781 23.8362L107.549 8.45179H111.825L117.529 23.8362V24.6077H114.725L113.093 19.9878H106.058L104.407 24.6077H101.763L101.781 23.8362ZM106.915 17.5735H112.281L111.397 15.0049C111.05 14.002 110.772 13.1896 110.558 12.5497C110.344 11.9099 110.161 11.3653 109.993 10.8842H109.295L109.021 11.6512C108.93 11.9053 108.83 12.1912 108.716 12.5044C108.602 12.8175 108.479 13.1806 108.342 13.589C108.205 13.9974 108.041 14.4649 107.845 15.0049L106.915 17.5735ZM133.459 24.6077H130.724L125.768 18.2542H123.944V24.6077H121.135V8.43363H126.41C127.201 8.43225 127.99 8.48837 128.772 8.60154C129.499 8.70643 130.192 8.97325 130.801 9.38211C132.084 10.2232 132.725 11.4908 132.725 13.1851C132.738 13.8417 132.625 14.4947 132.392 15.1093C132.195 15.6267 131.899 16.1013 131.521 16.507C131.161 16.8883 130.737 17.2046 130.268 17.4419C129.798 17.6811 129.3 17.8625 128.786 17.9819L133.459 23.8362V24.6077ZM123.935 15.8218H126.401C127.296 15.8692 128.185 15.6647 128.968 15.2318C129.284 15.022 129.537 14.7322 129.702 14.3923C129.867 14.0525 129.938 13.6748 129.907 13.2985C129.945 12.9251 129.875 12.5487 129.706 12.213C129.538 11.8773 129.277 11.596 128.955 11.4016C128.163 11.0099 127.284 10.8256 126.401 10.8661H123.935V15.8218ZM137.079 8.43363H147.602V10.9115H139.851V15.1456H147.046V17.578H139.865V22.1162H147.762V24.6077H137.079V8.43363ZM154.053 19.9651C154.185 20.7239 154.6 21.405 155.216 21.8711C155.923 22.3569 156.77 22.5977 157.628 22.5564C158.444 22.6082 159.253 22.3684 159.907 21.8802C160.168 21.6641 160.376 21.3915 160.515 21.0832C160.655 20.7749 160.721 20.439 160.71 20.1013C160.719 19.7853 160.645 19.4724 160.496 19.1936C160.346 18.9406 160.14 18.7248 159.894 18.5628C159.6 18.3688 159.281 18.2161 158.945 18.109L157.678 17.7278L156.456 17.392C155.786 17.2153 155.134 16.9768 154.509 16.6795C153.972 16.4268 153.476 16.0965 153.037 15.6992C152.645 15.3369 152.334 14.8961 152.125 14.4059C151.899 13.8347 151.791 13.2243 151.807 12.6109C151.823 11.9975 151.962 11.3934 152.216 10.8343C152.484 10.2664 152.879 9.76668 153.369 9.37303C153.911 8.94168 154.53 8.61673 155.193 8.41548C155.968 8.17098 156.778 8.05297 157.591 8.06604C159.266 8.06604 160.594 8.45935 161.576 9.24596C162.061 9.63501 162.462 10.1164 162.757 10.6619C163.052 11.2073 163.235 11.806 163.295 12.4227L160.559 12.645C160.426 12.0216 160.078 11.4643 159.575 11.0703C158.961 10.6609 158.229 10.4633 157.491 10.5076C156.795 10.4668 156.107 10.6691 155.544 11.0794C155.32 11.2541 155.141 11.4784 155.02 11.7345C154.899 11.9906 154.839 12.2713 154.847 12.5543C154.834 12.8559 154.903 13.1553 155.047 13.4211C155.194 13.666 155.395 13.874 155.635 14.0292C155.928 14.2188 156.244 14.3713 156.575 14.483C156.944 14.6192 157.363 14.7644 157.833 14.9141L158.986 15.2726C159.71 15.4996 160.362 15.7355 160.942 15.9806C161.479 16.2078 161.979 16.5137 162.424 16.8882C162.826 17.2266 163.147 17.6499 163.363 18.1272C163.598 18.6904 163.71 19.2967 163.692 19.9061C163.699 20.6185 163.543 21.3232 163.236 21.9664C162.941 22.5852 162.507 23.1286 161.968 23.5548C161.39 24.0057 160.733 24.3472 160.031 24.5623C159.228 24.8103 158.391 24.9312 157.55 24.9208C156.067 24.9752 154.603 24.5658 153.365 23.7499C152.791 23.3348 152.31 22.8053 151.953 22.1951C151.596 21.5849 151.37 20.9074 151.29 20.2056L154.053 19.9651ZM167.74 8.43363H173.667C174.606 8.4095 175.543 8.53983 176.439 8.81938C177.12 9.02836 177.744 9.3901 178.263 9.87677C178.719 10.3182 179.06 10.8633 179.257 11.4651C179.466 12.1007 179.569 12.766 179.562 13.4347C179.581 14.1882 179.438 14.937 179.143 15.6312C178.877 16.2381 178.461 16.7687 177.935 17.1741C177.359 17.5985 176.705 17.9068 176.011 18.0818C175.175 18.2951 174.315 18.3973 173.453 18.3858H170.581V24.6077H167.749L167.74 8.43363ZM170.572 15.9579H173.284C173.743 15.9613 174.201 15.9203 174.652 15.8354C175.036 15.7639 175.403 15.624 175.737 15.4224C176.044 15.2312 176.295 14.9617 176.462 14.6418C176.646 14.2664 176.735 13.8521 176.722 13.4347C176.736 13.007 176.646 12.5823 176.462 12.1958C176.3 11.8718 176.052 11.5975 175.746 11.4016C175.418 11.1986 175.055 11.0585 174.675 10.9886C174.224 10.9031 173.766 10.862 173.307 10.8661H170.549L170.572 15.9579ZM180.347 23.8362L186.119 8.45179H190.395L196.094 23.8362V24.6077H193.313L191.686 19.9878H184.623L182.996 24.6077H180.347V23.8362ZM185.485 17.5735H190.847L189.962 15.0049C189.616 14.002 189.338 13.1896 189.128 12.5497L188.562 10.8842H187.842L187.569 11.6512C187.477 11.9053 187.377 12.1912 187.263 12.5044C187.149 12.8175 187.026 13.1806 186.889 13.589C186.752 13.9974 186.588 14.4649 186.392 15.0049L185.485 17.5735ZM213.338 20.3282C213.08 20.9609 212.743 21.5587 212.335 22.1071C211.911 22.6694 211.402 23.1624 210.825 23.5684C210.201 24.0052 209.509 24.3392 208.778 24.5577C207.938 24.8081 207.065 24.9305 206.189 24.9208C205.056 24.9379 203.933 24.7232 202.888 24.29C201.931 23.8925 201.068 23.2987 200.357 22.5473C199.643 21.7788 199.092 20.8741 198.739 19.888C198.352 18.8153 198.159 17.6829 198.169 16.5433C198.159 15.4037 198.352 14.2713 198.739 13.1987C199.093 12.2081 199.647 11.3 200.366 10.5303C201.082 9.77089 201.948 9.16813 202.91 8.76038C203.959 8.32148 205.088 8.10361 206.225 8.1205C207.807 8.06451 209.368 8.49728 210.693 9.35942C211.871 10.1581 212.764 11.3087 213.242 12.645L210.365 13.2078C210.007 12.4218 209.439 11.7484 208.724 11.2609C207.967 10.7735 207.08 10.5266 206.179 10.553C205.441 10.5369 204.709 10.6922 204.041 11.0068C203.426 11.3071 202.886 11.7395 202.459 12.2729C202.011 12.8411 201.677 13.4897 201.474 14.1835C201.242 14.9469 201.126 15.741 201.132 16.5388C201.126 17.3418 201.244 18.1409 201.483 18.9077C201.698 19.5946 202.043 20.234 202.5 20.7911C202.946 21.3142 203.502 21.734 204.128 22.0209C204.81 22.3321 205.553 22.4872 206.303 22.4747C207.234 22.512 208.153 22.2424 208.915 21.7078C209.587 21.2178 210.134 20.5773 210.511 19.838L213.338 20.3282ZM217.163 8.43363H227.686V10.9115H219.935V15.1456H227.143V17.578H219.949V22.1162H227.845V24.6077H217.163V8.43363Z" fill="black"/>
</g>
<defs>
<clipPath id="clip0_1_293">
<rect width="227.964" height="32.6748" fill="white" transform="translate(0 0.237671)"/>
</clipPath>
</defs>
</svg>
