<svg width="159" height="41" viewBox="0 0 159 41" fill="none" xmlns="http://www.w3.org/2000/svg">
<path d="M51.0214 16.1826C51.0214 13.3651 48.265 10.3728 43.4952 10.3728C38.1389 10.3728 32.2549 14.2784 31.3556 22.0701C30.4369 29.9395 35.3631 33.437 40.3284 33.437C45.2937 33.437 47.8936 31.5133 50.5522 28.9485C48.265 26.0922 45.3132 27.4135 44.7463 27.7049C44.1208 28.0158 43.3193 28.4433 41.6772 28.4433C39.7615 28.4433 37.8066 27.5883 37.8066 24.0325C50.083 22.8278 51.0214 19 51.0214 16.1826ZM44.9418 16.6489C44.8636 17.5233 44.5117 19.0194 38.2953 19.855C39.6051 15.2305 42.1073 14.8807 43.2606 14.8807C44.3358 14.8807 45.02 15.7162 44.9418 16.6489ZM24.1423 17.4067C24.1423 17.4067 21.5033 25.6453 21.2882 26.3254C21.21 25.6259 19.2747 10.8392 19.2747 10.8392C14.7786 10.8392 12.3741 14.0258 11.1035 17.3873C11.1035 17.3873 7.89756 25.6453 7.62388 26.3448C7.60433 25.7036 7.13517 17.4844 7.13517 17.4844C6.86149 13.3651 3.0691 10.8586 0 10.8586L3.7142 33.2621C8.42536 33.2427 10.9667 30.0755 12.2959 26.714C12.2959 26.714 15.1305 19.4275 15.2478 19.0972C15.2673 19.4081 17.2808 33.2621 17.2808 33.2621C22.0115 33.2621 24.5528 30.2892 25.9212 27.0443L32.5481 10.8586C27.876 10.8586 25.4129 14.0258 24.1423 17.4067ZM68.3803 10.334C65.4676 10.334 63.2391 11.9078 61.3625 14.2201V14.2006L63.0436 0.735229C59.173 0.735229 56.0257 4.0773 55.4197 9.05153L52.4875 33.0872C54.716 33.0872 57.0814 32.446 58.352 30.8138C59.4858 32.2711 61.1865 33.437 63.7083 33.437C70.2374 33.437 74.714 25.8979 74.714 18.8251C74.6749 12.3742 71.5276 10.334 68.3803 10.334ZM67.7743 21.8952C67.0901 25.8396 64.8812 28.521 62.7504 28.521C60.6001 28.521 59.6813 27.5689 59.6813 27.5689C60.0918 24.1103 60.3459 21.9923 61.1279 20.1658C61.9098 18.3394 63.7669 15.4248 65.7022 15.4248C67.5984 15.4248 68.4585 17.9313 67.7743 21.8952ZM91.0174 10.8586H86.4626L86.4822 10.6254C86.7949 7.67196 87.4987 6.11751 89.8249 5.86491C91.4084 5.70947 92.1121 4.89338 92.288 3.99957C92.4249 3.30007 92.8549 0.871244 92.8549 0.871244C83.7063 0.812952 80.8327 4.73794 80.0898 10.7226L80.0703 10.8586H79.9725C78.4869 10.8586 76.8448 12.5296 76.5711 14.6476L76.4734 15.4248H79.5229L76.9621 36.4487L76.1802 40.2182C76.2779 40.2182 76.3952 40.2377 76.4929 40.2377C80.774 40.0822 83.5108 36.7207 84.1168 31.8437L86.1107 15.4248H87.5378C88.9453 15.4248 90.5873 14.0258 90.8806 11.6941L91.0174 10.8586ZM114.71 10.47C109.452 10.47 104.486 14.3172 102.961 20.3602C101.437 26.4031 103.743 33.5535 111.485 33.5535C119.206 33.5535 123.663 26.1116 123.663 19.9132C123.663 13.7537 119.46 10.47 114.71 10.47ZM116.841 21.7009C116.567 24.4406 115.355 28.5987 112.032 28.5987C108.689 28.5987 109.158 23.7411 109.491 21.4288C109.843 18.9612 111.23 15.4442 114.221 15.4442C116.899 15.4442 117.154 18.6114 116.841 21.7009ZM149.643 17.4067C149.643 17.4067 147.004 25.6453 146.789 26.3254C146.711 25.6259 144.776 10.8392 144.776 10.8392C140.279 10.8392 137.875 14.0258 136.604 17.3873C136.604 17.3873 133.398 25.6453 133.125 26.3448C133.105 25.7036 132.636 17.4844 132.636 17.4844C132.362 13.3651 128.57 10.8586 125.501 10.8586L129.195 33.2621C133.907 33.2427 136.448 30.0755 137.777 26.714C137.777 26.714 140.612 19.4275 140.709 19.0972C140.749 19.4081 142.742 33.2621 142.742 33.2621C147.473 33.2621 150.015 30.2892 151.383 27.0443L158.01 10.8586C153.357 10.8586 150.894 14.0258 149.643 17.4067ZM95.318 0.871244L91.4866 31.5911L90.7046 35.38C90.8024 35.38 90.9197 35.3995 91.0174 35.3995C95.1421 35.3412 98.0744 31.7465 98.6217 27.2192L100.831 9.59559C101.495 4.21331 98.2699 0.871244 95.318 0.871244Z" fill="black"/>
</svg>
