<svg width="82" height="34" viewBox="0 0 82 34" fill="none" xmlns="http://www.w3.org/2000/svg">
<g clip-path="url(#clip0_1_298)">
<path fill-rule="evenodd" clip-rule="evenodd" d="M46.8435 1.91215C45.2211 2.76205 44.6169 4.19789 44.6169 8.16297C44.6169 8.16297 45.4384 7.36882 46.6569 6.92623C47.5455 6.60538 48.3044 6.11501 48.7424 5.79416C50.1134 4.78953 50.3262 3.49704 50.3262 1.31938C50.3262 1.31938 48.0905 1.25907 46.8435 1.91215ZM37.2215 2.84101C35.8983 4.00721 35.5115 5.8663 35.5115 5.8663L31.1311 22.8382L27.488 8.94734C27.1331 7.47053 26.4936 5.64557 25.481 4.41111C24.192 2.83873 21.5717 2.73975 21.293 2.73975C21.0131 2.73975 18.3928 2.83873 17.1026 4.41111C16.0912 5.64557 15.4517 7.47053 15.0968 8.94734L11.4537 22.8382L7.07218 5.8663C7.07218 5.8663 6.68648 4.00721 5.36327 2.84101C3.21747 0.95006 -0.000100136 1.35396 -0.000100136 1.35396L8.38856 33.0711C8.38856 33.0711 11.1556 33.2714 12.5414 32.5648C14.3595 31.6387 15.2253 30.9231 16.3267 26.6076C17.3074 22.7597 20.0505 11.4584 20.3065 10.654C20.434 10.2569 20.5944 9.30687 21.293 9.30687C22.0052 9.30687 22.1531 10.2558 22.2771 10.654C22.5286 11.4595 25.2762 22.7597 26.2581 26.6076C27.3595 30.9231 28.2242 31.6387 30.0434 32.5648C31.4281 33.2714 34.1951 33.0711 34.1951 33.0711L42.5838 1.35396C42.5838 1.35396 39.3673 0.95006 37.2215 2.84101ZM50.3234 6.532C50.3234 6.532 49.7989 7.34435 48.6009 8.01335C47.8329 8.44342 47.0945 8.73469 46.3026 9.1147C44.976 9.7507 44.6165 10.4595 44.6165 11.5404V11.9022V13.5724V13.6179V13.9945V33.0713C44.6165 33.0713 46.7338 33.3398 48.1185 32.6332C49.9002 31.7253 50.3098 30.8492 50.3257 26.9046V7.68113L50.3234 7.68227V6.532ZM71.233 17.2896L81.8767 1.45886C81.8767 1.45886 77.3848 0.694293 75.1605 2.71836C73.7372 4.01426 72.1455 6.34438 72.1455 6.34438L68.2293 11.9899C68.0393 12.2835 67.7901 12.6032 67.3931 12.6032C66.996 12.6032 66.748 12.2835 66.558 11.9899L62.6418 6.34438C62.6418 6.34438 61.0501 4.01426 59.6267 2.71836C57.4024 0.694293 52.9106 1.45886 52.9106 1.45886L63.5531 17.2896L52.9379 33.0714C52.9379 33.0714 57.6163 33.663 59.8407 31.6367C61.264 30.3419 62.6418 28.2348 62.6418 28.2348L66.558 22.5904C66.748 22.2957 66.996 21.9771 67.3931 21.9771C67.7901 21.9771 68.0393 22.2957 68.2293 22.5904L72.1455 28.2348C72.1455 28.2348 73.6029 30.3419 75.0263 31.6367C77.2517 33.663 81.8482 33.0714 81.8482 33.0714L71.233 17.2896Z" fill="black"/>
</g>
<defs>
<clipPath id="clip0_1_298">
<rect width="81.9183" height="32.9949" fill="white" transform="translate(0 0.912476)"/>
</clipPath>
</defs>
</svg>
